<svg class="fish" width="120px" viewBox="0 0 149 122" version="1.1" xmlns="http://www.w3.org/2000/svg" xmlns:xlink="http://www.w3.org/1999/xlink" xml:space="preserve" xmlns:serif="http://www.serif.com/" style="fill-rule:evenodd;clip-rule:evenodd;stroke-linejoin:round;stroke-miterlimit:1.41421;">
    <g transform="matrix(1,0,0,1,-31.1405,-234.264)">
      <g>
        <g transform="matrix(1,0,0,1,81.9847,278.034)">
          <path class="wing-xs" d="M0,-26.456C6.952,-27.322 15.114,-25.34 21.613,-28.528C27.517,-31.425 29.943,-36.519 37.168,-36.259C52.424,-35.709 57.833,-19.57 60.375,-7.14C60.559,-6.243 59.421,-5.816 58.963,-6.441L54.476,-3.028C54.773,-2.622 54.746,-2.002 54.233,-1.716C51.577,-0.235 48.759,-0.162 45.756,0.161C40.574,0.719 35.392,1.256 30.229,1.972C21.923,3.123 13.67,4.643 5.572,6.835C-0.146,8.383 -5.946,10.063 -11.382,6.74C-15.502,4.221 -18.284,-0.339 -18.996,-5.068C-20.703,-16.391 -10.371,-25.164 0,-26.456" style="fill:rgb(229,117,16);fill-rule:nonzero;"></path>
        </g>
        <g transform="matrix(1,0,0,1,104.386,352.7)">
          <path class="wing" d="M0,-44.873C0.892,-45.183 1.558,-44.371 1.555,-43.591L31.066,-41.876C31.124,-42.586 31.969,-42.714 32.369,-42.191C38.803,-33.777 28.658,-22.397 23.071,-16.629C18.32,-11.724 9.563,0.31 1.657,-6.133C-1.545,-8.742 -2.459,-13.025 -4.799,-16.273C-7.572,-20.122 -12.687,-21.55 -14.465,-26.237C-18.194,-36.063 -7.572,-42.238 0,-44.873" style="fill:rgb(229,117,16);fill-rule:nonzero;"></path>
        </g>
        <g transform="matrix(1,0,0,1,57.0277,330.832)">
          <path d="M0,-14.192C3.147,-18.011 8.477,-22.94 13.802,-21.286C14.839,-20.963 15.181,-19.783 14.677,-18.96L30.498,-8.843C30.953,-9.448 31.842,-8.915 31.522,-8.217C28.797,-2.277 25.064,8.748 16.597,7.304C7.008,5.67 5.582,-5.896 0,-11.956C-0.621,-12.63 -0.563,-13.509 0,-14.192" style="fill:rgb(229,117,16);fill-rule:nonzero;"></path>
        </g>
        <g>
          <clipPath id="_clip1">
            <path class="tail" d="M34.913,279.347C31.603,282.789 31.793,291.419 31.514,295.946C31.2,301.032 30.353,308.626 33.088,313.306C39.094,323.591 53.38,312.639 59.278,308.137C61.86,306.166 67.712,303.209 66.311,299.184C65.24,296.107 64.429,291.743 60.457,289.923C56.324,286.213 50.487,282.616 45.585,280.076C43.182,278.831 40.816,277.717 38.682,277.717C37.314,277.717 36.041,278.174 34.913,279.347Z" clip-rule="nonzero"></path>
          </clipPath>
          <g clip-path="url(#_clip1)">
            <g transform="matrix(1,0,0,1,31.5142,303.988)">
              <path d="M0,-8.043C0.279,-12.57 0.088,-21.2 3.398,-24.642C6.286,-27.645 10.128,-25.956 14.071,-23.913C18.973,-21.372 24.81,-17.775 28.942,-14.065C32.915,-12.245 33.726,-7.882 34.797,-4.804C36.198,-0.779 30.346,2.178 27.763,4.149C21.865,8.65 7.58,19.602 1.573,9.317C-1.161,4.637 -0.314,-2.956 0,-8.043" style="fill:rgb(245,140,35);fill-rule:nonzero;"></path>
            </g>
            <g transform="matrix(1,0,0,1,41.213,302.481)">
              <path d="M0,8.844C7.026,8.108 13.376,5.545 18.95,1.209C19.545,0.746 18.709,-0.079 18.12,0.38C12.817,4.505 6.681,6.971 0,7.671C-0.743,7.749 -0.751,8.923 0,8.844" style="fill:rgb(229,117,16);fill-rule:nonzero;"></path>
            </g>
            <g transform="matrix(1,0,0,1,39.9877,301.114)">
              <path d="M0,4.587C6.152,4.336 12.108,3.263 17.96,1.337C18.673,1.102 18.368,-0.031 17.648,0.206C11.905,2.096 6.044,3.167 0,3.414C-0.752,3.445 -0.756,4.618 0,4.587" style="fill:rgb(229,117,16);fill-rule:nonzero;"></path>
            </g>
            <g transform="matrix(1,0,0,1,39.6521,299.339)">
              <path d="M0,0.638C6.051,1.132 12.095,1.234 18.159,0.944C18.911,0.908 18.915,-0.265 18.159,-0.229C12.095,0.061 6.051,-0.041 0,-0.535C-0.752,-0.596 -0.748,0.577 0,0.638" style="fill:rgb(229,117,16);fill-rule:nonzero;"></path>
            </g>
            <g transform="matrix(1,0,0,1,41.346,300.036)">
              <path d="M0,-7.05C6.15,-5.14 11.919,-2.478 17.366,0.952C18.007,1.355 18.596,0.341 17.958,-0.061C12.43,-3.541 6.549,-6.244 0.312,-8.181C-0.411,-8.405 -0.72,-7.274 0,-7.05" style="fill:rgb(229,117,16);fill-rule:nonzero;"></path>
            </g>
            <g transform="matrix(1,0,0,1,44.1197,298.605)">
              <path d="M0,-12.416C6.773,-9.808 12.4,-5.276 16.405,0.775C16.82,1.402 17.836,0.815 17.418,0.183C13.233,-6.139 7.386,-10.824 0.312,-13.547C-0.393,-13.818 -0.698,-12.685 0,-12.416" style="fill:rgb(229,117,16);fill-rule:nonzero;"></path>
            </g>
          </g>
        </g>
        <g>
          <clipPath id="_clip2">
            <path d="M89.2,257.439C69.666,264.593 54.121,285.804 48.911,297.494L48.833,297.669L48.894,297.85C49.003,298.17 60.205,329.854 96.214,333.735C99.407,334.08 102.555,334.243 105.64,334.243C137.66,334.243 163.184,316.521 168.09,297.816L168.102,297.751C168.133,297.492 168.801,291.326 162.653,284.169L161.969,283.374C155.934,276.342 147.668,266.712 139.719,261.732C133.772,258.007 122.136,254.047 109.067,254.048C102.623,254.048 95.829,255.011 89.2,257.439Z" clip-rule="nonzero"></path>
          </clipPath>
          <g clip-path="url(#_clip2)">
            <g transform="matrix(1,0,0,1,48.9112,286.837)">
              <path d="M0,10.657C5.21,-1.032 20.755,-22.243 40.288,-29.398C60.361,-36.75 81.929,-30.667 90.807,-25.105C98.756,-20.125 107.022,-10.495 113.058,-3.463L113.742,-2.667C119.89,4.489 119.223,10.655 119.191,10.915L119.179,10.979C114.273,29.685 88.749,47.407 56.729,47.407C53.643,47.407 50.495,47.243 47.302,46.898C11.293,43.017 0.092,11.333 -0.017,11.013L-0.079,10.832L0,10.657Z" style="fill:rgb(245,140,35);fill-rule:nonzero;"></path>
            </g>
            <g transform="matrix(1,0,0,1,48.9112,286.837)">
              <path d="M0,10.657C5.21,-1.032 20.755,-22.243 40.288,-29.398C60.361,-36.75 81.929,-30.667 90.807,-25.105C98.756,-20.125 107.022,-10.495 113.058,-3.463L113.742,-2.667C119.89,4.489 119.223,10.655 119.191,10.915L119.179,10.979C114.273,29.685 88.749,47.407 56.729,47.407C53.643,47.407 50.495,47.243 47.302,46.898C11.293,43.017 0.092,11.333 -0.017,11.013L-0.079,10.832L0,10.657Z" style="fill:rgb(229,128,37);fill-rule:nonzero;"></path>
            </g>
            <g transform="matrix(1,0,0,1,48.9112,283.064)">
              <path d="M0,10.657C5.21,-1.032 20.755,-22.243 40.288,-29.398C60.361,-36.75 81.929,-30.667 90.807,-25.105C98.756,-20.125 107.022,-10.495 113.058,-3.463L113.742,-2.667C119.89,4.489 119.223,10.655 119.191,10.915L119.179,10.979C114.273,29.685 88.749,47.407 56.729,47.407C53.643,47.407 50.495,47.243 47.302,46.898C11.293,43.017 0.092,11.333 -0.017,11.013L-0.079,10.832L0,10.657Z" style="fill:rgb(245,140,35);fill-rule:nonzero;"></path>
            </g>
            <g transform="matrix(1,0,0,1,47.8335,279.386)">
              <path d="M0,10.657C5.21,-1.032 20.755,-22.243 40.288,-29.398C60.361,-36.75 81.929,-30.667 90.807,-25.105C98.756,-20.125 107.023,-10.495 113.058,-3.463L113.742,-2.667C119.89,4.489 119.223,10.655 119.191,10.915L119.179,10.979C114.273,29.685 88.749,47.407 56.729,47.407C53.643,47.407 50.496,47.243 47.302,46.898C11.293,43.017 0.092,11.333 -0.017,11.013L-0.078,10.832L0,10.657Z" style="fill:rgb(245,140,35);fill-rule:nonzero;"></path>
            </g>
            <g transform="matrix(1,0,0,1,171.976,295.071)">
              <path d="M0,5.393C-6.417,9.125 -14.204,8.803 -14.319,8.797C-14.636,8.781 -14.879,8.511 -14.864,8.195C-14.849,7.879 -14.577,7.635 -14.261,7.649C-14.102,7.659 1.705,8.304 6.077,-3.284C6.188,-3.579 6.52,-3.732 6.817,-3.618C7.114,-3.506 7.263,-3.175 7.151,-2.878C5.67,1.047 2.983,3.658 0,5.393" style="fill:rgb(53,53,53);fill-rule:nonzero;"></path>
            </g>
            <g transform="matrix(1,0,0,1,115.714,315.592)">
              <path d="M0,-48.689C0.365,-54.256 -0.126,-66.214 6.08,-68.866C10.95,-70.947 17.542,-67.152 21.068,-62.935C21.154,-63.061 21.229,-63.196 21.316,-63.321C21.637,-63.783 22.365,-63.508 22.234,-62.934C22.145,-62.54 22.053,-62.149 21.961,-61.758C22.284,-61.288 22.578,-60.818 22.808,-60.358C23.73,-58.511 22.369,-56.714 20.728,-56.617C18.823,-48.807 16.972,-41.238 16.741,-32.909C16.452,-22.5 17.49,-12.16 19.359,-1.926C20.413,3.843 24.37,13.36 18.688,17.948C13.351,22.258 9.444,17.553 8.141,12.42C3.109,-7.386 -1.346,-28.138 0,-48.689" style="fill:rgb(53,53,53);fill-rule:nonzero;"></path>
            </g>
            <g transform="matrix(1,0,0,1,116.635,315.592)">
              <path d="M0,-48.689C0.323,-54.256 -0.111,-66.214 5.379,-68.866C9.689,-70.947 15.52,-67.152 18.641,-62.935C18.716,-63.061 18.783,-63.196 18.86,-63.321C19.143,-63.783 19.788,-63.508 19.672,-62.934C19.593,-62.54 19.512,-62.149 19.431,-61.758C19.716,-61.288 19.976,-60.818 20.18,-60.358C20.995,-58.511 19.791,-56.714 18.34,-56.617C16.654,-48.807 15.016,-41.238 14.812,-32.909C14.556,-22.5 15.475,-12.16 17.128,-1.926C18.06,3.843 21.562,13.36 16.534,17.948C11.812,22.258 8.356,17.553 7.202,12.42C2.751,-7.386 -1.19,-28.138 0,-48.689" style="fill:rgb(248,241,222);fill-rule:nonzero;"></path>
            </g>
            <g transform="matrix(1,0,0,1,82.1529,334.902)">
              <path d="M0,-81.462C-1.508,-85.656 -4.803,-89.242 -6.073,-93.423C-7.984,-99.714 -1.767,-101.265 3.109,-100.431C9.479,-99.341 15.147,-95.522 18.951,-90.354C29.794,-75.624 17.633,-60.175 16.718,-44.543C15.801,-28.87 22.684,-8.08 14.947,6.784C14.976,10.207 14.785,13.637 14.38,17.059C14.057,19.788 9.732,19.803 10.059,17.042C11.278,6.746 10.57,-3.58 7.502,-13.516C4.848,-22.11 -0.029,-30.063 -0.55,-39.221C-1.11,-49.064 2.759,-58.533 2.5,-68.363C2.383,-72.825 1.509,-77.263 0,-81.462" style="fill:rgb(53,53,53);fill-rule:nonzero;"></path>
            </g>
            <g transform="matrix(1,0,0,1,50.5106,301.728)">
              <path d="M0,-7.17C0.591,-13.741 3.48,-23.468 9.542,-27.023C9.619,-27.068 9.697,-27.089 9.775,-27.116C9.707,-27.444 9.638,-27.773 9.569,-28.101C9.437,-28.729 10.377,-28.999 10.538,-28.368C10.665,-27.87 10.787,-27.375 10.906,-26.882C11.23,-26.595 11.419,-26.141 11.313,-25.661C11.294,-25.576 11.263,-25.498 11.242,-25.415C12.474,-19.786 12.816,-14.437 9.607,-9.129C3.987,0.167 5.398,9.54 7.608,19.7C7.954,21.293 5.79,21.829 5.21,20.362C1.723,11.544 -0.861,2.396 0,-7.17" style="fill:rgb(53,53,53);fill-rule:nonzero;"></path>
            </g>
            <g transform="matrix(1,0,0,1,83.1987,336.218)">
              <path d="M0,-81.431C-1.324,-85.62 -4.198,-89.192 -5.316,-93.369C-6.996,-99.652 -1.601,-101.227 2.637,-100.412C8.174,-99.346 13.111,-95.55 16.432,-90.397C25.9,-75.708 15.388,-60.212 14.646,-44.577C13.902,-28.901 19.951,-8.137 13.28,6.756C13.317,10.179 13.162,13.61 12.822,17.034C12.55,19.764 8.794,19.796 9.069,17.034C10.092,6.733 9.443,-3.591 6.744,-13.514C4.41,-22.098 0.147,-30.032 -0.336,-39.188C-0.856,-49.029 2.473,-58.513 2.216,-68.341C2.099,-72.803 1.325,-77.238 0,-81.431" style="fill:rgb(248,241,222);fill-rule:nonzero;"></path>
            </g>
            <g transform="matrix(1,0,0,1,49.4387,301.728)">
              <path d="M0,-7.17C0.591,-13.741 3.48,-23.468 9.542,-27.023C9.619,-27.068 9.697,-27.089 9.775,-27.116C9.707,-27.444 9.638,-27.773 9.569,-28.101C9.437,-28.729 10.377,-28.999 10.538,-28.368C10.665,-27.87 10.787,-27.375 10.906,-26.882C11.23,-26.595 11.419,-26.141 11.313,-25.661C11.294,-25.576 11.263,-25.498 11.242,-25.415C12.474,-19.786 12.816,-14.437 9.607,-9.129C3.987,0.167 5.398,9.54 7.608,19.7C7.954,21.293 5.79,21.829 5.21,20.362C1.723,11.544 -0.861,2.396 0,-7.17" style="fill:rgb(248,241,222);fill-rule:nonzero;"></path>
            </g>
          </g>
        </g>
        <g transform="matrix(1,0,0,1,151.357,281.373)">
          <path d="M0,0C0,3.843 -3.115,6.958 -6.958,6.958C-10.801,6.958 -13.916,3.843 -13.916,0C-13.916,-3.843 -10.801,-6.958 -6.958,-6.958C-3.115,-6.958 0,-3.843 0,0" style="fill:white;fill-rule:nonzero;"></path>
        </g>
        <g transform="matrix(1,0,0,1,150.019,280.578)">
          <path class="eye" d="M0,0C0,1.552 -1.258,2.81 -2.81,2.81C-4.362,2.81 -5.62,1.552 -5.62,0C-5.62,-1.552 -4.362,-2.81 -2.81,-2.81C-1.258,-2.81 0,-1.552 0,0" style="fill:rgb(53,53,53);fill-rule:nonzero;"></path>
        </g>
        <g>
          <clipPath id="_clip3">
            <path class="tail" d="M97.781,300.846C93.68,304.906 94.567,318.15 98.303,321.9C102.462,326.074 108.485,322.168 113.129,319.846C115.462,318.589 117.577,316.027 118.934,314.055C121.038,310.996 118.587,308.178 116.36,306.103C113.081,303.049 107.623,298.782 102.786,298.782C100.983,298.782 99.266,299.376 97.781,300.846Z" clip-rule="nonzero"></path>
          </clipPath>
          <g clip-path="url(#_clip3)">
            <g transform="matrix(1,0,0,1,97.7802,320.661)">
              <path d="M0,-19.814C5.469,-25.228 14.078,-18.751 18.58,-14.557C20.807,-12.482 23.258,-9.664 21.154,-6.605C19.797,-4.633 17.682,-2.072 15.349,-0.815C10.705,1.508 4.682,5.414 0.523,1.24C-3.214,-2.511 -4.1,-15.755 0,-19.814" style="fill:rgb(229,117,16);fill-rule:nonzero;"></path>
            </g>
            <g transform="matrix(1,0,0,1,103.312,311.352)">
              <path d="M0,-8.512C3.848,-8.503 8.515,-6.061 11.496,-3.8C13.585,-2.216 15.222,-0.407 17.782,0.381C18.071,0.47 18.194,0.018 17.906,-0.071C14.281,-1.188 11.669,-4.687 8.227,-6.351C5.729,-7.56 2.803,-8.975 0,-8.981C-0.302,-8.982 -0.302,-8.513 0,-8.512" style="fill:rgb(245,140,35);fill-rule:nonzero;"></path>
            </g>
            <g transform="matrix(1,0,0,1,100.022,313.186)">
              <path d="M0,7.156C6.942,8.721 15.951,3.754 20.717,-1.019C20.93,-1.233 20.599,-1.565 20.385,-1.351C15.771,3.271 6.764,8.201 0.125,6.704C-0.169,6.637 -0.295,7.09 0,7.156" style="fill:rgb(245,140,35);fill-rule:nonzero;"></path>
            </g>
            <g transform="matrix(1,0,0,1,100.355,312.264)">
              <path d="M0,2.398C7.124,2.618 14.095,1.921 21.032,0.301C21.326,0.232 21.202,-0.22 20.907,-0.152C14.017,1.458 7.068,2.147 0,1.929C-0.302,1.919 -0.302,2.389 0,2.398" style="fill:rgb(245,140,35);fill-rule:nonzero;"></path>
            </g>
            <g transform="matrix(1,0,0,1,101.443,311.684)">
              <path d="M0,-3.865C6.407,-3.559 12.5,-2.159 18.393,0.366C18.667,0.484 18.906,0.08 18.629,-0.039C12.664,-2.596 6.479,-4.024 0,-4.334C-0.302,-4.349 -0.301,-3.879 0,-3.865" style="fill:rgb(245,140,35);fill-rule:nonzero;"></path>
            </g>
          </g>
        </g>
        <g transform="matrix(1,0,0,1,76.2,269.076)">
          <path d="M0,-1.407C0.144,-1.547 0.304,-1.678 0.472,-1.794C0.887,-2.244 1.593,-2.596 1.995,-2.459C2.025,-2.448 2.039,-2.423 2.065,-2.409C2.558,-2.465 3.081,-2.403 3.373,-1.982C3.766,-1.417 3.411,-0.725 3.046,-0.25C2.602,0.326 1.968,0.767 1.264,0.958C0.6,1.138 -0.39,1.189 -0.773,0.473C-1.184,-0.296 -0.581,-0.955 0,-1.407" style="fill:rgb(229,117,16);fill-rule:nonzero;"></path>
        </g>
        <g transform="matrix(1,0,0,1,73.1505,267.282)">
          <path d="M0,2.973C-0.445,3.056 -0.883,2.956 -1.152,2.495C-1.657,1.632 -0.871,0.726 -0.193,0.271C-0.078,0.194 0.045,0.127 0.172,0.069C0.366,-0.035 0.571,-0.083 0.78,-0.053C0.816,-0.051 0.852,-0.043 0.888,-0.036C0.903,-0.032 0.918,-0.035 0.933,-0.03C0.951,-0.023 0.963,-0.012 0.98,-0.005C1.049,0.016 1.119,0.026 1.187,0.066C1.668,0.347 1.772,0.918 1.677,1.424C1.522,2.254 0.842,2.997 0,2.973" style="fill:rgb(229,117,16);fill-rule:nonzero;"></path>
        </g>
        <g transform="matrix(1,0,0,1,70.8844,272.576)">
          <path d="M0,0.063C0.254,-0.563 0.765,-1.102 1.371,-1.397C1.691,-1.552 2.017,-1.556 2.283,-1.45C2.594,-1.519 2.904,-1.492 3.16,-1.248C3.699,-0.735 3.316,0.082 2.909,0.544C2.463,1.052 1.728,1.57 1.029,1.592C0.163,1.619 -0.316,0.841 0,0.063" style="fill:rgb(229,117,16);fill-rule:nonzero;"></path>
        </g>
        <g transform="matrix(1,0,0,1,79.0891,263.602)">
          <path d="M0,1.946C-0.048,1.854 -0.087,1.754 -0.102,1.637C-0.195,0.895 0.558,0.128 1.042,-0.344C1.504,-0.792 2.162,-1.394 2.86,-1.337C2.967,-1.328 3.057,-1.281 3.152,-1.246C3.33,-1.324 3.508,-1.381 3.684,-1.396C4.652,-1.477 4.926,-0.35 4.781,0.398C4.609,1.288 4.004,2.083 3.259,2.579C2.546,3.054 1.43,3.423 0.71,2.766C0.705,2.762 0.703,2.757 0.699,2.752C0.193,2.581 -0.006,2.292 0,1.946" style="fill:rgb(229,117,16);fill-rule:nonzero;"></path>
        </g>
        <g transform="matrix(1,0,0,1,83.3187,271.269)">
          <path d="M0,-4.443C0.635,-4.422 1.171,-3.957 1.217,-3.312C1.255,-2.77 1.014,-2.222 0.75,-1.757C0.347,-1.049 -0.442,-0.256 -1.301,-0.109C-1.742,0.032 -2.191,0.03 -2.582,-0.205C-3.708,-0.882 -3.288,-2.283 -2.596,-3.093C-2.007,-3.782 -0.94,-4.475 0,-4.443" style="fill:rgb(229,117,16);fill-rule:nonzero;"></path>
        </g>
        <g transform="matrix(1,0,0,1,76.267,273.548)">
          <path d="M0,-1.985C0.648,-2.528 1.94,-2.614 2.217,-1.607C2.482,-0.644 1.548,0.261 0.701,0.487C0.169,0.629 -0.359,0.174 -0.441,-0.317C-0.48,-0.393 -0.514,-0.47 -0.533,-0.553C-0.695,-0.954 -0.555,-1.359 -0.275,-1.673C-0.195,-1.788 -0.106,-1.896 0,-1.985" style="fill:rgb(229,117,16);fill-rule:nonzero;"></path>
        </g>
        <g transform="matrix(1,0,0,1,139.685,266.456)">
          <path d="M0,0.154C0.099,0.154 0.099,0 0,0C-0.099,0 -0.099,0.154 0,0.154" style="fill:rgb(255,186,123);fill-rule:nonzero;"></path>
        </g>
        <g transform="matrix(1,0,0,1,140.896,267.14)">
          <path d="M0,-0.276C-0.141,-0.3 -0.17,-0.306 -0.305,-0.255C-0.419,-0.211 -0.419,-0.065 -0.305,-0.022C-0.17,0.03 -0.141,0.024 0,0C0.136,-0.024 0.137,-0.252 0,-0.276" style="fill:rgb(255,186,123);fill-rule:nonzero;"></path>
        </g>
        <g transform="matrix(1,0,0,1,143.204,265.979)">
          <path d="M0,0.638C0.41,0.638 0.411,0 0,0C-0.41,0 -0.411,0.638 0,0.638" style="fill:rgb(255,186,123);fill-rule:nonzero;"></path>
        </g>
        <g transform="matrix(1,0,0,1,142.969,267.313)">
          <path d="M0,1.254C0.807,1.254 0.808,0 0,0C-0.807,0 -0.808,1.254 0,1.254" style="fill:rgb(255,186,123);fill-rule:nonzero;"></path>
        </g>
        <g transform="matrix(1,0,0,1,145.55,268.581)">
          <path d="M0,0.594C0.382,0.594 0.383,0 0,0C-0.382,0 -0.383,0.594 0,0.594" style="fill:rgb(255,186,123);fill-rule:nonzero;"></path>
        </g>
        <g transform="matrix(1,0,0,1,141.505,264.984)">
          <path d="M0,-0.589C-0.016,-0.619 -0.033,-0.648 -0.049,-0.678C-0.298,-1.128 -0.996,-1.128 -1.245,-0.678C-1.262,-0.648 -1.278,-0.619 -1.294,-0.589C-1.567,-0.095 -1.226,0.539 -0.647,0.539C-0.069,0.539 0.273,-0.095 0,-0.589" style="fill:rgb(255,186,123);fill-rule:nonzero;"></path>
        </g>
        <g transform="matrix(1,0,0,1,147.576,269.509)">
          <path d="M0,0.615C0.037,0.623 0.074,0.631 0.111,0.639C0.293,0.679 0.482,0.586 0.534,0.399C0.552,0.334 0.552,0.281 0.534,0.216C0.482,0.03 0.293,-0.064 0.111,-0.024C0.074,-0.016 0.037,-0.008 0,0C-0.304,0.066 -0.304,0.549 0,0.615" style="fill:rgb(255,186,123);fill-rule:nonzero;"></path>
        </g>
        <g transform="matrix(1,0,0,1,62.166,313.733)">
          <path d="M0,-0.049C0,0.159 0.038,0.279 0.219,0.394C0.289,0.439 0.393,0.439 0.463,0.394C0.643,0.28 0.682,0.162 0.682,-0.049C0.682,-0.488 0,-0.488 0,-0.049" style="fill:rgb(255,186,123);fill-rule:nonzero;"></path>
        </g>
        <g transform="matrix(1,0,0,1,66.2602,317.294)">
          <path d="M0,0.286C0.184,0.286 0.184,0 0,0C-0.184,0 -0.184,0.286 0,0.286" style="fill:rgb(255,186,123);fill-rule:nonzero;"></path>
        </g>
        <g transform="matrix(1,0,0,1,67.0605,314.941)">
          <path d="M0,-0.873C-0.03,-0.857 -0.06,-0.841 -0.09,-0.826C-0.383,-0.67 -0.383,-0.203 -0.09,-0.047L0,0.001C0.335,0.178 0.761,-0.041 0.761,-0.436C0.761,-0.832 0.335,-1.051 0,-0.873" style="fill:rgb(255,186,123);fill-rule:nonzero;"></path>
        </g>
        <g transform="matrix(0.707107,0.707107,0.707107,-0.707107,69.9548,318.821)">
          <path d="M-0.024,-0.059C0.031,-0.059 0.086,-0.059 0.141,-0.059" style="fill:rgb(255,186,123);fill-rule:nonzero;"></path>
        </g>
        <g transform="matrix(1,0,0,1,69.5774,319.211)">
          <path d="M0,-0.366C0.002,-0.327 0.005,-0.288 0.007,-0.249C0.03,0.113 0.465,0.329 0.739,0.055C1.013,-0.219 0.798,-0.655 0.436,-0.678C0.397,-0.68 0.358,-0.682 0.319,-0.685C0.154,-0.695 -0.01,-0.53 0,-0.366" style="fill:rgb(255,186,123);fill-rule:nonzero;"></path>
        </g>
        <g transform="matrix(1,0,0,1,63.3279,315.286)">
          <path d="M0,1.957C1.259,1.957 1.262,0 0,0C-1.259,0 -1.262,1.957 0,1.957" style="fill:rgb(255,186,123);fill-rule:nonzero;"></path>
        </g>
        <g transform="matrix(1,0,0,1,109.58,330.563)">
          <path d="M0,0.023C0.015,0.023 0.015,0 0,0C-0.015,0 -0.015,0.023 0,0.023" style="fill:rgb(255,186,123);fill-rule:nonzero;"></path>
        </g>
        <g transform="matrix(1,0,0,1,32.5408,279.691)">
          <path d="M0,21.346C0.779,18.34 1.137,15.22 1.228,12.116C1.271,10.668 1.117,9.189 1.19,7.746C1.416,3.311 3.559,1.598 7.197,0.285C7.478,0.184 7.367,-0.212 7.074,-0.16C3.971,0.39 1.295,1.8 0.637,5.097C0.281,6.878 0.591,8.776 0.609,10.572C0.645,14.189 0.168,17.677 -0.318,21.258C-0.346,21.461 -0.055,21.558 0,21.346" style="fill:rgb(255,186,123);fill-rule:nonzero;"></path>
        </g>
      </g>
    </g>
  </svg>